<svg width="72" height="72" viewBox="0 0 63 74" fill="none" xmlns="http://www.w3.org/2000/svg">
  <circle cx="35" cy="46" r="28" fill="#2C6269" />
  <path
    d="M7.07448 8.1481C7.66768 8.1481 8.14853 7.66725 8.14853 7.07405C8.14853 6.48085 7.66768 6 7.07448 6H7.07362C6.48042 6 6 6.48085 6 7.07405C6 7.66725 6.48128 8.1481 7.07448 8.1481V8.1481Z"
    fill="#79C8C7" />
  <path
    d="M39.4632 39.261C44.3233 34.4257 47 27.9966 47 21.158C47 14.3194 44.3233 7.89032 39.4632 3.05499C38.1548 1.75321 36.0253 1.7531 34.7164 3.05499C34.3794 3.39026 34.1298 3.77996 33.9663 4.1957C27.1686 -0.851789 17.8892 -1.44452 10.4301 2.95848C9.89861 3.27216 9.7234 3.95505 10.0387 4.48377C10.3539 5.01261 11.0405 5.18692 11.5718 4.87314C14.1387 3.35787 16.9468 2.504 19.7769 2.28394L19.314 3.92255C18.9342 5.26762 18.8037 5.54545 17.8506 6.3952C17.5014 6.70653 17.1521 7.02488 16.8143 7.33277C16.4817 7.63609 16.1376 7.94965 15.7983 8.25208C15.7831 8.26566 15.7683 8.27958 15.7539 8.29394C14.9378 9.10583 14.6876 10.1624 15.0678 11.1927C15.5888 12.6048 17.2802 13.7754 19.0023 13.9159L25.5726 14.4516C27.3158 14.5936 28.2954 14.399 29.4909 12.87C29.6553 12.6596 29.8835 12.5266 30.1168 12.5049C30.3659 12.4818 30.618 12.5816 30.8683 12.8016L34.1734 15.7063C35.0267 16.4562 35.896 17.1142 36.9958 17.1141C37.4509 17.1141 37.9459 17.0013 38.4952 16.7357L39.6171 16.1934C41.3363 22.5249 39.7029 29.5776 34.7164 34.5385C34.2996 34.9532 33.8675 35.3431 33.4231 35.7111L32.3367 34.6724C31.1094 33.4988 29.963 33.3359 28.6181 33.453L22.8005 33.9594C21.6913 34.0561 21.6296 33.9312 21.3327 33.3318L20.8185 32.2935C20.7801 32.2161 20.7762 32.1141 20.8084 32.0334C20.8342 31.969 20.876 31.9302 20.9483 31.9034L22.9734 31.1538C24.5972 30.5527 25.0693 29.666 25.4136 28.1364L26.2887 24.2516C26.5129 23.2567 26.2916 22.2777 25.6817 21.5655C25.093 20.8778 24.2287 20.5313 23.2493 20.5914L19.9743 20.7903C18.3816 20.8871 17.3807 21.5907 16.8247 23.0049L16.1021 24.8433C15.7482 25.7433 15.581 25.8796 14.6107 26.0577L12.9598 26.3606C12.8166 26.387 12.3815 26.4666 12.1171 25.7396L11.1591 23.1061C10.6048 21.5823 9.48867 20.768 7.74699 20.6165L2.26562 20.1396C2.42527 17.1677 3.29147 14.2068 4.898 11.5128C5.21328 10.9841 5.03808 10.3012 4.50663 9.98753C3.97519 9.67385 3.28879 9.84805 2.9735 10.3769C-1.45192 17.7977 -0.856142 27.0294 4.21741 33.7923C3.79953 33.9549 3.40783 34.2031 3.07084 34.5384C1.76214 35.8404 1.76214 37.9589 3.07084 39.261C7.66632 43.8328 13.6942 46.4611 20.1479 46.734V49.7648H12.3162C10.4654 49.7648 8.95969 51.2628 8.95969 53.1041V55.8869C8.95969 56.5017 9.46059 57 10.0785 57H36.9303C37.5481 57 38.0491 56.5017 38.0491 55.8869V53.1041C38.0491 51.2628 36.5435 49.7648 34.6928 49.7648H26.861V46.1552C31.5991 45.1157 35.9499 42.7564 39.4632 39.261ZM37.5171 14.7334C37.0288 14.9696 36.8265 15.0675 35.6547 14.0378L32.3495 11.1331C31.6385 10.5081 30.7715 10.2083 29.9085 10.2885C29.0626 10.3671 28.2665 10.8099 27.7245 11.5034C27.113 12.2853 26.9847 12.3331 25.7552 12.233L19.185 11.6973C18.2718 11.6228 17.3671 10.9645 17.1684 10.4259C17.1143 10.279 17.0853 10.127 17.3178 9.8869C17.6576 9.58358 17.9973 9.27403 18.326 8.97438C18.6593 8.67061 19.0039 8.35638 19.3438 8.05339C20.7213 6.8253 21.0203 6.11036 21.4681 4.52496L22.1119 2.24576C26.736 2.45269 31.2575 4.33684 34.7163 7.7779C36.5786 9.63066 37.9728 11.7754 38.8999 14.0652L37.5171 14.7334ZM9.05512 23.8636L10.0132 26.497C10.5657 28.0164 11.8821 28.8224 13.366 28.5498L15.0168 28.2468C16.7494 27.9288 17.5492 27.2745 18.1861 25.654L18.9088 23.8156C19.1178 23.284 19.285 23.0625 20.1107 23.0124L23.3857 22.8135C23.6533 22.7971 23.8532 22.863 23.9784 23.0093C24.1255 23.1812 24.173 23.4637 24.1052 23.7649L23.23 27.6496C22.9854 28.7357 22.8873 28.8104 22.193 29.0673L20.1679 29.8168C19.5005 30.0639 18.9894 30.5589 18.7289 31.2109C18.4618 31.8793 18.4917 32.6324 18.811 33.2774L19.3253 34.3159C20.1875 36.0568 21.3687 36.3189 22.9953 36.1771L28.8128 35.6708C29.7186 35.5922 30.1526 35.6718 30.7859 36.2775L31.5936 37.0498C24.2278 41.7895 14.2652 40.9531 7.81758 34.5384C4.45338 31.1914 2.5696 26.844 2.27781 22.3754L7.55186 22.8342C8.53173 22.9194 8.83617 23.2616 9.05512 23.8636ZM4.65331 36.1127C5.08932 35.6788 5.79888 35.6787 6.23511 36.1122C6.23489 36.1121 6.23522 36.1123 6.23511 36.1122C10.3794 40.2352 15.8234 42.2972 21.2671 42.2972C26.7107 42.2972 32.1545 40.2356 36.2987 36.1127C44.587 27.8667 44.587 14.4494 36.2987 6.20341C36.0874 5.99314 35.971 5.71364 35.971 5.41633C35.971 5.11902 36.0874 4.83952 36.2987 4.62926C36.735 4.19526 37.4449 4.19537 37.881 4.62926C47.0418 13.7433 47.0418 28.5728 37.881 37.6868C28.7202 46.8008 13.8144 46.8009 4.65342 37.6868C4.21708 37.2528 4.21708 36.5467 4.65331 36.1127ZM35.8117 53.1042V54.7739H11.1976V53.1042C11.1976 52.4905 11.6995 51.9911 12.3164 51.9911H34.693C35.3099 51.9911 35.8117 52.4905 35.8117 53.1042ZM24.6235 49.7649H22.3858V46.7342C23.1381 46.7023 23.8844 46.6385 24.6235 46.5434V49.7649Z"
    fill="#79C8C7" />
</svg>