<svg width="117" height="38" viewBox="0 0 117 38" fill="none" xmlns="http://www.w3.org/2000/svg">
<path d="M4.162 29.078C3.278 29.052 2.563 28.688 2.017 27.986C1.497 27.466 1.224 26.829 1.198 26.075C1.172 23.423 1.12 19.666 1.042 14.804L0.925 3.845C0.925 3.091 1.185 2.454 1.705 1.934C2.225 1.388 2.862 1.115 3.616 1.115C4.37 1.089 5.007 1.336 5.527 1.856C6.073 2.376 6.359 3.013 6.385 3.767L6.502 13.985L6.619 23.813C7.893 23.813 9.739 23.8 12.157 23.774C14.601 23.748 16.395 23.735 17.539 23.735C18.293 23.735 18.93 23.995 19.45 24.515C19.996 25.009 20.269 25.62 20.269 26.348C20.269 27.076 19.996 27.713 19.45 28.259C18.93 28.779 18.293 29.039 17.539 29.039C16.681 29.039 14.458 29.052 10.87 29.078C7.256 29.104 5.02 29.104 4.162 29.078ZM22.4207 26.348C22.3427 20.836 22.3817 15.675 22.5377 10.865C22.5637 10.111 22.8497 9.487 23.3957 8.993C23.9677 8.473 24.6307 8.226 25.3847 8.252C26.1387 8.278 26.7627 8.577 27.2567 9.149C27.7767 9.695 28.0237 10.345 27.9977 11.099C27.8417 15.961 27.8027 21.018 27.8807 26.27C27.8807 27.024 27.6207 27.674 27.1007 28.22C26.5807 28.74 25.9437 29 25.1897 29C24.4357 29.026 23.7857 28.779 23.2397 28.259C22.7197 27.739 22.4467 27.102 22.4207 26.348ZM27.0617 1.583C27.6077 2.103 27.8807 2.766 27.8807 3.572C27.8807 4.352 27.6077 5.015 27.0617 5.561C26.5157 6.107 25.8527 6.38 25.0727 6.38C24.2927 6.38 23.6297 6.107 23.0837 5.561C22.5377 5.015 22.2647 4.352 22.2647 3.572C22.2647 2.766 22.5377 2.09 23.0837 1.544C23.6297 0.997999 24.2927 0.724999 25.0727 0.724999C25.8527 0.724999 26.5157 1.011 27.0617 1.583ZM49.6083 26.543C49.5823 27.245 49.3093 27.843 48.7893 28.337C48.2693 28.831 47.6583 29.065 46.9563 29.039C46.2543 29.013 45.6563 28.74 45.1623 28.22C44.6683 27.7 44.4343 27.089 44.4603 26.387C44.4603 26.101 44.4863 25.243 44.5383 23.813C44.6163 22.383 44.6553 21.278 44.6553 20.498C44.6813 19.718 44.6553 18.821 44.5773 17.807C44.4993 16.767 44.3563 15.935 44.1483 15.311C43.9923 14.817 43.6803 14.414 43.2123 14.102C42.7443 13.764 42.1593 13.569 41.4573 13.517C40.7293 13.439 40.0533 13.53 39.4293 13.79C38.8313 14.024 38.3893 14.362 38.1033 14.804C37.9993 15.142 37.9343 15.376 37.9083 15.506C37.9083 15.61 37.9083 15.779 37.9083 16.013C37.9083 16.923 37.9213 18.561 37.9473 20.927C37.9733 23.267 37.9863 25.048 37.9863 26.27C37.9863 27.024 37.7133 27.674 37.1673 28.22C36.6473 28.74 36.0103 29 35.2563 29C34.5023 29 33.8523 28.74 33.3063 28.22C32.7863 27.674 32.5263 27.024 32.5263 26.27C32.5263 25.178 32.5003 22.942 32.4483 19.562C32.4223 16.182 32.3183 13.595 32.1363 11.801C32.0063 10.865 32.1883 10.124 32.6823 9.578C33.1763 9.006 33.8133 8.72 34.5933 8.72C35.9973 8.798 36.8163 9.474 37.0503 10.748C38.2463 9.24 39.8973 8.447 42.0033 8.369C43.8493 8.395 45.3573 8.902 46.5273 9.89C47.6973 10.852 48.5423 12.139 49.0623 13.751C49.3483 14.635 49.5433 15.753 49.6473 17.105C49.7773 18.457 49.8293 19.601 49.8033 20.537C49.8033 21.447 49.7643 22.669 49.6863 24.203C49.6343 25.737 49.6083 26.517 49.6083 26.543ZM62.2683 37.034C61.0203 37.034 59.9023 36.813 58.9143 36.371C57.9523 35.955 56.9773 35.305 55.9893 34.421C55.4173 33.927 55.0013 33.459 54.7413 33.017C54.5073 32.575 54.3903 32.12 54.3903 31.652C54.3903 30.898 54.6373 30.274 55.1313 29.78C55.6253 29.286 56.2363 29.039 56.9643 29.039C57.8223 29.039 58.4983 29.377 58.9923 30.053C59.5643 30.807 60.1363 31.34 60.7083 31.652C61.2803 31.99 61.8913 32.159 62.5413 32.159C63.7893 32.159 64.7773 31.639 65.5053 30.599C66.2333 29.559 66.7143 28.246 66.9483 26.66C66.4283 27.492 65.6743 28.103 64.6863 28.493C63.7243 28.883 62.6843 29.078 61.5663 29.078C60.0583 29.078 58.6673 28.675 57.3933 27.869C56.1193 27.037 55.0923 25.88 54.3123 24.398C53.5583 22.89 53.1813 21.174 53.1813 19.25C53.1813 17.118 53.5713 15.233 54.3513 13.595C55.1313 11.931 56.2363 10.644 57.6663 9.734C59.0963 8.798 60.7343 8.33 62.5803 8.33C63.9323 8.33 65.3753 8.746 66.9093 9.578C67.0653 9.214 67.3513 8.928 67.7673 8.72C68.2093 8.486 68.7423 8.369 69.3663 8.369C70.0683 8.369 70.6273 8.616 71.0433 9.11C71.4853 9.578 71.7193 10.241 71.7453 11.099C71.8233 15.987 71.8233 21.07 71.7453 26.348C71.6933 27.908 71.3423 29.39 70.6923 30.794C70.0683 32.224 69.1973 33.524 68.0793 34.694C67.2993 35.474 66.4413 36.059 65.5053 36.449C64.5693 36.839 63.4903 37.034 62.2683 37.034ZM62.1903 24.008C63.2563 24.008 64.2703 23.527 65.2323 22.565C65.5183 22.279 65.7653 21.941 65.9733 21.551C66.2073 21.161 66.3893 20.81 66.5193 20.498C66.5193 17.222 66.5063 15.285 66.4803 14.687C65.8823 14.219 65.2973 13.894 64.7253 13.712C64.1533 13.504 63.4383 13.4 62.5803 13.4C61.1243 13.4 60.0453 13.92 59.3433 14.96C58.6673 16 58.3293 17.43 58.3293 19.25C58.3293 20.68 58.6803 21.837 59.3823 22.721C60.0843 23.579 61.0203 24.008 62.1903 24.008ZM90.8313 29.39C89.3493 28.818 88.6083 27.869 88.6083 26.543C87.1263 28.623 85.0203 29.442 82.2903 29C81.1463 28.688 80.1453 28.22 79.2873 27.596C78.4553 26.972 77.8053 26.231 77.3373 25.373C76.8693 24.515 76.5183 23.67 76.2843 22.838C76.0503 21.98 75.8943 21.07 75.8163 20.108C75.7383 19.588 75.7383 18.73 75.8163 17.534C75.8943 16.338 75.9593 15.454 76.0113 14.882C76.0633 14.31 76.1543 13.53 76.2843 12.542C76.4143 11.528 76.4923 10.904 76.5183 10.67C76.6223 9.942 76.9473 9.357 77.4933 8.915C78.0653 8.473 78.7023 8.304 79.4043 8.408C80.1323 8.486 80.7173 8.811 81.1593 9.383C81.6013 9.929 81.7833 10.566 81.7053 11.294L81.4323 13.322C81.3023 14.284 81.2113 15.012 81.1593 15.506C81.1073 15.974 81.0423 16.702 80.9643 17.69C80.9123 18.652 80.9253 19.341 81.0033 19.757C81.1073 21.031 81.3543 22.006 81.7443 22.682C82.1603 23.332 82.7973 23.761 83.6553 23.969C84.2273 24.125 84.8643 24.086 85.5663 23.852C86.2683 23.592 86.9703 22.903 87.6723 21.785C87.8283 21.629 87.9843 21.499 88.1403 21.395C88.1663 17.573 88.1533 14.154 88.1013 11.138C88.1013 10.358 88.3613 9.708 88.8813 9.188C89.4013 8.642 90.0383 8.369 90.7923 8.369C91.5723 8.343 92.2223 8.59 92.7423 9.11C93.2883 9.63 93.5743 10.28 93.6003 11.06C93.6523 14.908 93.6523 20.121 93.6003 26.699C93.6003 27.427 93.3273 28.064 92.7813 28.61C92.2353 29.13 91.5853 29.39 90.8313 29.39ZM105.478 29.039C104.542 29.039 103.528 28.857 102.436 28.493C101.084 27.973 99.9526 27.206 99.0426 26.192C98.1586 25.152 97.6126 24.021 97.4046 22.799C97.2486 21.993 97.1706 21.213 97.1706 20.459C97.1706 18.717 97.5086 17.079 98.1846 15.545C99.1206 13.387 100.434 11.645 102.124 10.319C103.814 8.993 105.738 8.33 107.896 8.33C108.676 8.33 109.521 8.434 110.431 8.642C111.029 8.798 111.614 9.071 112.186 9.461H112.381L112.771 9.422C113.421 9.422 113.993 9.656 114.487 10.124C115.007 10.592 115.306 11.164 115.384 11.84L115.657 14.531C115.709 15.675 115.774 17.625 115.852 20.381L115.93 22.487C115.982 23.787 116.008 24.645 116.008 25.061C116.034 25.451 116.021 25.828 115.969 26.192C115.865 26.946 115.579 27.596 115.111 28.142C114.669 28.662 114.084 28.935 113.356 28.961C112.758 28.987 112.212 28.844 111.718 28.532C111.25 28.194 110.912 27.596 110.704 26.738C110.106 27.466 109.378 27.999 108.52 28.337C107.506 28.753 106.492 28.987 105.478 29.039ZM105.517 23.54C106.297 23.54 107.103 23.293 107.935 22.799C108.143 22.669 108.377 22.474 108.637 22.214L109.222 21.668L109.885 20.732C110.041 20.55 110.223 20.42 110.431 20.342C110.431 18.158 110.366 16.312 110.236 14.804L109.846 14.531L109.3 14.102L108.949 13.868C108.533 13.764 108.208 13.712 107.974 13.712C107.038 13.712 106.128 14.076 105.244 14.804C104.386 15.532 103.697 16.546 103.177 17.846C102.761 18.86 102.553 19.77 102.553 20.576C102.553 21.278 102.709 21.863 103.021 22.331C103.359 22.799 103.827 23.137 104.425 23.345C104.815 23.475 105.179 23.54 105.517 23.54Z" fill="white"/>
</svg>
